%FSLAX25Y25*%
%MOIN*%
G70*
G01*
G75*
G04 Layer_Color=2752767*
%ADD10C,0.02500*%
%ADD11C,0.06000*%
%ADD12R,0.05000X0.02000*%
%ADD13R,0.03000X0.03000*%
%ADD14R,0.01575X0.01575*%
%ADD15R,0.01575X0.02362*%
%ADD16R,0.01969X0.02756*%
%ADD17R,0.05118X0.06299*%
%ADD18C,0.01000*%
%ADD19C,0.02000*%
%ADD20C,0.01200*%
%ADD21C,0.03000*%
%ADD22C,0.00800*%
%ADD23C,0.00600*%
%ADD24C,0.00900*%
%ADD25C,0.01500*%
%ADD26C,0.00500*%
%ADD27C,0.04000*%
%ADD28C,0.00984*%
%ADD29C,0.06800*%
%ADD30R,0.05600X0.02600*%
%ADD31R,0.03800X0.03800*%
%ADD32R,0.02375X0.02375*%
%ADD33R,0.02375X0.03162*%
%ADD34R,0.02769X0.03556*%
%ADD35R,0.05918X0.07099*%
%ADD36C,0.00667*%
D10*
X401800Y-59700D02*
X452800D01*
D18*
X310500Y192000D02*
X338000D01*
X310500Y0D02*
X338000D01*
X337000Y111495D02*
Y192000D01*
Y0D02*
Y77305D01*
X335000Y186000D02*
X337000Y192000D01*
X339000Y186000D01*
X337000Y0D02*
X339000Y6000D01*
X335000D02*
X337000Y0D01*
X317000Y-17500D02*
Y6516D01*
X0Y-17500D02*
Y6516D01*
X173995Y-16500D02*
X317000D01*
X0D02*
X139805D01*
X311000Y-14500D02*
X317000Y-16500D01*
X311000Y-18500D02*
X317000Y-16500D01*
X0D02*
X6000Y-18500D01*
X0Y-16500D02*
X6000Y-14500D01*
X-16Y8016D02*
G03*
X8000Y0I8016J0D01*
G01*
X8016Y192016D02*
G03*
X0Y184000I0J-8016D01*
G01*
X317016Y183984D02*
G03*
X309000Y192000I-8016J0D01*
G01*
Y0D02*
G03*
X317016Y8016I0J8016D01*
G01*
X8000Y0D02*
X309000D01*
X0Y8016D02*
Y184000D01*
X317000Y8016D02*
Y183984D01*
X8016Y192000D02*
X309000D01*
X127501Y-150794D02*
G03*
X122502Y-145794I-5000J0D01*
G01*
X122618Y-165794D02*
G03*
X127499Y-160827I84J4800D01*
G01*
X137502Y-145794D02*
G03*
X132501Y-150794I0J-5000D01*
G01*
Y-160794D02*
G03*
X137414Y-165793I5000J0D01*
G01*
X310001Y-150794D02*
G03*
X305001Y-145794I-5000J0D01*
G01*
X305118Y-165794D02*
G03*
X309999Y-160827I84J4800D01*
G01*
X315002Y-160894D02*
G03*
X319987Y-165793I4900J0D01*
G01*
X320002Y-145794D02*
G03*
X315002Y-150794I0J-5000D01*
G01*
X35002Y-75694D02*
G03*
X30101Y-70794I-4900J0D01*
G01*
X30202Y-103294D02*
G03*
X35002Y-98494I0J4800D01*
G01*
Y-113194D02*
G03*
X29930Y-108297I-4900J0D01*
G01*
X40001Y-108394D02*
G03*
X44901Y-113294I4900J0D01*
G01*
X40001Y-135894D02*
G03*
X44901Y-140794I4900J0D01*
G01*
X30101D02*
G03*
X35002Y-135894I0J4900D01*
G01*
X210001Y-123194D02*
G03*
X205101Y-118294I-4900J0D01*
G01*
Y-140794D02*
G03*
X210001Y-135809I0J4900D01*
G01*
X215002Y-135694D02*
G03*
X220012Y-140793I5100J0D01*
G01*
X219801Y-118294D02*
G03*
X215008Y-123345I0J-4800D01*
G01*
X45002Y-118294D02*
G03*
X40001Y-123294I0J-5000D01*
G01*
X45001Y-70794D02*
G03*
X40001Y-75794I0J-5000D01*
G01*
X-49999Y-135794D02*
G03*
X-45086Y-140793I5000J0D01*
G01*
X-44998Y-108294D02*
G03*
X-49999Y-113294I0J-5000D01*
G01*
Y-98294D02*
G03*
X-44998Y-103294I5000J0D01*
G01*
Y-70794D02*
G03*
X-49999Y-75794I0J-5000D01*
G01*
Y-60794D02*
G03*
X-44998Y-65794I5000J0D01*
G01*
Y-45794D02*
G03*
X-49999Y-50794I0J-5000D01*
G01*
X255001D02*
G03*
X250002Y-45794I-5000J0D01*
G01*
X265002D02*
G03*
X260001Y-50794I0J-5000D01*
G01*
X250002Y-65794D02*
G03*
X255001Y-60794I0J5000D01*
G01*
Y-75794D02*
G03*
X250002Y-70794I-5000J0D01*
G01*
X-44998Y-145794D02*
G03*
X-49999Y-150794I0J-5000D01*
G01*
X250089Y-113294D02*
G03*
X255002Y-108294I-87J5000D01*
G01*
X-49999Y-160794D02*
G03*
X-45086Y-165793I5000J0D01*
G01*
X255001Y-123194D02*
G03*
X250101Y-118294I-4900J0D01*
G01*
X260001Y-135894D02*
G03*
X264987Y-140793I4900J0D01*
G01*
X250002Y-140794D02*
G03*
X255001Y-135794I0J5000D01*
G01*
X375002Y-165794D02*
G03*
X380001Y-160794I0J5000D01*
G01*
X380002Y-150707D02*
G03*
X375002Y-145793I-5000J-87D01*
G01*
Y-140794D02*
G03*
X380001Y-135794I0J5000D01*
G01*
Y-50694D02*
G03*
X374931Y-45797I-4900J0D01*
G01*
X385001Y-50794D02*
G03*
X375002Y-40794I-10000J0D01*
G01*
Y-170794D02*
G03*
X385001Y-160794I0J10000D01*
G01*
X-54998Y-160694D02*
G03*
X-45075Y-170792I10100J0D01*
G01*
X-44998Y-40794D02*
G03*
X-54998Y-50794I0J-10000D01*
G01*
X260001Y-108294D02*
G03*
X265002Y-113294I5000J0D01*
G01*
X375002D02*
G03*
X380001Y-108294I0J5000D01*
G01*
X265002Y-118294D02*
G03*
X260001Y-123294I0J-5000D01*
G01*
X380001Y-123194D02*
G03*
X375101Y-118294I-4900J0D01*
G01*
X137502Y-165794D02*
X305001D01*
X-44998D02*
X122502D01*
X-44998Y-145794D02*
X122502D01*
X137502D02*
X305001D01*
X320002Y-165794D02*
X375002D01*
X320002Y-145794D02*
X375002D01*
X-44998Y-45794D02*
X250002D01*
X-44998Y-170794D02*
X375002D01*
X-44998Y-40794D02*
X375002D01*
X-44998Y-140794D02*
X30002D01*
X-44998Y-108294D02*
X30002D01*
X-44998Y-103294D02*
X30002D01*
X-44998Y-70794D02*
X30002D01*
X-44998Y-65794D02*
X250002D01*
X45002Y-70794D02*
X250002D01*
X45002Y-118294D02*
X205001D01*
X45002Y-140794D02*
X205001D01*
X220002D02*
X250002D01*
X220002Y-118294D02*
X250002D01*
X265002Y-140794D02*
X375002D01*
X265002Y-45794D02*
X375002D01*
X45002Y-113294D02*
X250002D01*
X265002D02*
X375002D01*
X265002Y-118294D02*
X375002D01*
X127501Y-160794D02*
Y-150794D01*
X132501Y-160794D02*
Y-150794D01*
X310001Y-160794D02*
Y-150794D01*
X315002Y-160794D02*
Y-150794D01*
X385001Y-160794D02*
Y-50794D01*
X-49999Y-135794D02*
Y-113294D01*
X35002Y-135794D02*
Y-113294D01*
X-49999Y-98294D02*
Y-75794D01*
X35002Y-98294D02*
Y-75794D01*
X-49999Y-60794D02*
Y-50794D01*
X255001Y-60794D02*
Y-50794D01*
Y-108294D02*
Y-75794D01*
X40001Y-108294D02*
Y-75794D01*
X210001Y-135794D02*
Y-123294D01*
X40001Y-135794D02*
Y-123294D01*
X215002Y-135794D02*
Y-123294D01*
X255001Y-135794D02*
Y-123294D01*
X380001Y-160794D02*
Y-150794D01*
X-49999Y-160794D02*
Y-150794D01*
X-54998Y-160794D02*
Y-50794D01*
X260001Y-108294D02*
Y-50794D01*
X380001Y-108294D02*
Y-50794D01*
X260001Y-135794D02*
Y-123294D01*
X380001Y-135794D02*
Y-123194D01*
X297875Y-77392D02*
X297266Y-76782D01*
X296352Y-76478D01*
X295133D01*
X294219Y-76782D01*
X293609Y-77392D01*
Y-78001D01*
X293914Y-78611D01*
X294219Y-78915D01*
X294828Y-79220D01*
X296656Y-79829D01*
X297266Y-80134D01*
X297570Y-80439D01*
X297875Y-81048D01*
Y-81962D01*
X297266Y-82572D01*
X296352Y-82876D01*
X295133D01*
X294219Y-82572D01*
X293609Y-81962D01*
X299307Y-78611D02*
Y-81658D01*
X299612Y-82572D01*
X300221Y-82876D01*
X301135D01*
X301745Y-82572D01*
X302659Y-81658D01*
Y-78611D02*
Y-82876D01*
X304944Y-76478D02*
X305249Y-76782D01*
X305554Y-76478D01*
X305249Y-76173D01*
X304944Y-76478D01*
X305249Y-78611D02*
Y-82876D01*
X307595Y-76478D02*
Y-81658D01*
X307900Y-82572D01*
X308509Y-82876D01*
X309119D01*
X306681Y-78611D02*
X308814D01*
X310033Y-80439D02*
X313689D01*
Y-79829D01*
X313384Y-79220D01*
X313080Y-78915D01*
X312470Y-78611D01*
X311556D01*
X310947Y-78915D01*
X310337Y-79525D01*
X310033Y-80439D01*
Y-81048D01*
X310337Y-81962D01*
X310947Y-82572D01*
X311556Y-82876D01*
X312470D01*
X313080Y-82572D01*
X313689Y-81962D01*
X320088Y-77697D02*
X320697Y-77392D01*
X321611Y-76478D01*
Y-82876D01*
X325085Y-78001D02*
Y-77697D01*
X325389Y-77087D01*
X325694Y-76782D01*
X326303Y-76478D01*
X327522D01*
X328132Y-76782D01*
X328436Y-77087D01*
X328741Y-77697D01*
Y-78306D01*
X328436Y-78915D01*
X327827Y-79829D01*
X324780Y-82876D01*
X329046D01*
X334134Y-77392D02*
X333829Y-76782D01*
X332915Y-76478D01*
X332306D01*
X331392Y-76782D01*
X330783Y-77697D01*
X330478Y-79220D01*
Y-80743D01*
X330783Y-81962D01*
X331392Y-82572D01*
X332306Y-82876D01*
X332611D01*
X333525Y-82572D01*
X334134Y-81962D01*
X334439Y-81048D01*
Y-80743D01*
X334134Y-79829D01*
X333525Y-79220D01*
X332611Y-78915D01*
X332306D01*
X331392Y-79220D01*
X330783Y-79829D01*
X330478Y-80743D01*
X289266Y-97978D02*
X286219D01*
X285914Y-100720D01*
X286219Y-100415D01*
X287133Y-100111D01*
X288047D01*
X288961Y-100415D01*
X289570Y-101025D01*
X289875Y-101939D01*
Y-102548D01*
X289570Y-103462D01*
X288961Y-104072D01*
X288047Y-104376D01*
X287133D01*
X286219Y-104072D01*
X285914Y-103767D01*
X285610Y-103158D01*
X294964Y-98892D02*
X294659Y-98282D01*
X293745Y-97978D01*
X293135D01*
X292221Y-98282D01*
X291612Y-99196D01*
X291307Y-100720D01*
Y-102243D01*
X291612Y-103462D01*
X292221Y-104072D01*
X293135Y-104376D01*
X293440D01*
X294354Y-104072D01*
X294964Y-103462D01*
X295268Y-102548D01*
Y-102243D01*
X294964Y-101329D01*
X294354Y-100720D01*
X293440Y-100415D01*
X293135D01*
X292221Y-100720D01*
X291612Y-101329D01*
X291307Y-102243D01*
X296670Y-99196D02*
X297279Y-98892D01*
X298193Y-97978D01*
Y-104376D01*
X301362Y-101634D02*
X306847D01*
X312697Y-100111D02*
X312392Y-101025D01*
X311783Y-101634D01*
X310869Y-101939D01*
X310564D01*
X309650Y-101634D01*
X309041Y-101025D01*
X308736Y-100111D01*
Y-99806D01*
X309041Y-98892D01*
X309650Y-98282D01*
X310564Y-97978D01*
X310869D01*
X311783Y-98282D01*
X312392Y-98892D01*
X312697Y-100111D01*
Y-101634D01*
X312392Y-103158D01*
X311783Y-104072D01*
X310869Y-104376D01*
X310259D01*
X309345Y-104072D01*
X309041Y-103462D01*
X318395Y-100111D02*
X318090Y-101025D01*
X317481Y-101634D01*
X316567Y-101939D01*
X316262D01*
X315348Y-101634D01*
X314738Y-101025D01*
X314434Y-100111D01*
Y-99806D01*
X314738Y-98892D01*
X315348Y-98282D01*
X316262Y-97978D01*
X316567D01*
X317481Y-98282D01*
X318090Y-98892D01*
X318395Y-100111D01*
Y-101634D01*
X318090Y-103158D01*
X317481Y-104072D01*
X316567Y-104376D01*
X315957D01*
X315043Y-104072D01*
X314738Y-103462D01*
X324093Y-100111D02*
X323788Y-101025D01*
X323179Y-101634D01*
X322265Y-101939D01*
X321960D01*
X321046Y-101634D01*
X320436Y-101025D01*
X320132Y-100111D01*
Y-99806D01*
X320436Y-98892D01*
X321046Y-98282D01*
X321960Y-97978D01*
X322265D01*
X323179Y-98282D01*
X323788Y-98892D01*
X324093Y-100111D01*
Y-101634D01*
X323788Y-103158D01*
X323179Y-104072D01*
X322265Y-104376D01*
X321655D01*
X320741Y-104072D01*
X320436Y-103462D01*
X325829Y-101634D02*
X331314D01*
X337164Y-100111D02*
X336859Y-101025D01*
X336250Y-101634D01*
X335336Y-101939D01*
X335031D01*
X334117Y-101634D01*
X333508Y-101025D01*
X333203Y-100111D01*
Y-99806D01*
X333508Y-98892D01*
X334117Y-98282D01*
X335031Y-97978D01*
X335336D01*
X336250Y-98282D01*
X336859Y-98892D01*
X337164Y-100111D01*
Y-101634D01*
X336859Y-103158D01*
X336250Y-104072D01*
X335336Y-104376D01*
X334727D01*
X333812Y-104072D01*
X333508Y-103462D01*
X341948Y-97978D02*
X338901Y-102243D01*
X343471D01*
X341948Y-97978D02*
Y-104376D01*
X344903Y-99501D02*
Y-99196D01*
X345208Y-98587D01*
X345513Y-98282D01*
X346122Y-97978D01*
X347341D01*
X347950Y-98282D01*
X348255Y-98587D01*
X348560Y-99196D01*
Y-99806D01*
X348255Y-100415D01*
X347646Y-101329D01*
X344599Y-104376D01*
X348865D01*
X350601Y-99501D02*
Y-99196D01*
X350906Y-98587D01*
X351211Y-98282D01*
X351820Y-97978D01*
X353039D01*
X353648Y-98282D01*
X353953Y-98587D01*
X354258Y-99196D01*
Y-99806D01*
X353953Y-100415D01*
X353344Y-101329D01*
X350297Y-104376D01*
X354562D01*
X268071Y-68111D02*
X267766Y-69025D01*
X267156Y-69634D01*
X266242Y-69939D01*
X265938D01*
X265024Y-69634D01*
X264414Y-69025D01*
X264109Y-68111D01*
Y-67806D01*
X264414Y-66892D01*
X265024Y-66282D01*
X265938Y-65978D01*
X266242D01*
X267156Y-66282D01*
X267766Y-66892D01*
X268071Y-68111D01*
Y-69634D01*
X267766Y-71158D01*
X267156Y-72072D01*
X266242Y-72376D01*
X265633D01*
X264719Y-72072D01*
X264414Y-71462D01*
X271636Y-65978D02*
X270721Y-66282D01*
X270112Y-67197D01*
X269807Y-68720D01*
Y-69634D01*
X270112Y-71158D01*
X270721Y-72072D01*
X271636Y-72376D01*
X272245D01*
X273159Y-72072D01*
X273768Y-71158D01*
X274073Y-69634D01*
Y-68720D01*
X273768Y-67197D01*
X273159Y-66282D01*
X272245Y-65978D01*
X271636D01*
X275810Y-67501D02*
Y-67197D01*
X276115Y-66587D01*
X276419Y-66282D01*
X277029Y-65978D01*
X278247D01*
X278857Y-66282D01*
X279162Y-66587D01*
X279466Y-67197D01*
Y-67806D01*
X279162Y-68415D01*
X278552Y-69329D01*
X275505Y-72376D01*
X279771D01*
X290801Y-67501D02*
X290496Y-66892D01*
X289887Y-66282D01*
X289277Y-65978D01*
X288059D01*
X287449Y-66282D01*
X286840Y-66892D01*
X286535Y-67501D01*
X286230Y-68415D01*
Y-69939D01*
X286535Y-70853D01*
X286840Y-71462D01*
X287449Y-72072D01*
X288059Y-72376D01*
X289277D01*
X289887Y-72072D01*
X290496Y-71462D01*
X290801Y-70853D01*
X292599Y-65978D02*
Y-72376D01*
X294549Y-65978D02*
X294853Y-66282D01*
X295158Y-65978D01*
X294853Y-65673D01*
X294549Y-65978D01*
X294853Y-68111D02*
Y-72376D01*
X296285Y-68111D02*
Y-72376D01*
Y-69329D02*
X297200Y-68415D01*
X297809Y-68111D01*
X298723D01*
X299332Y-68415D01*
X299637Y-69329D01*
Y-72376D01*
X302227Y-65978D02*
Y-71158D01*
X302532Y-72072D01*
X303141Y-72376D01*
X303750D01*
X301313Y-68111D02*
X303446D01*
X309692Y-65978D02*
Y-72376D01*
Y-65978D02*
X312130Y-72376D01*
X314567Y-65978D02*
X312130Y-72376D01*
X314567Y-65978D02*
Y-72376D01*
X317919Y-68111D02*
X317309Y-68415D01*
X316700Y-69025D01*
X316395Y-69939D01*
Y-70548D01*
X316700Y-71462D01*
X317309Y-72072D01*
X317919Y-72376D01*
X318833D01*
X319442Y-72072D01*
X320052Y-71462D01*
X320356Y-70548D01*
Y-69939D01*
X320052Y-69025D01*
X319442Y-68415D01*
X318833Y-68111D01*
X317919D01*
X323282D02*
X322672Y-68415D01*
X322063Y-69025D01*
X321758Y-69939D01*
Y-70548D01*
X322063Y-71462D01*
X322672Y-72072D01*
X323282Y-72376D01*
X324196D01*
X324805Y-72072D01*
X325414Y-71462D01*
X325719Y-70548D01*
Y-69939D01*
X325414Y-69025D01*
X324805Y-68415D01*
X324196Y-68111D01*
X323282D01*
X327121D02*
Y-72376D01*
Y-69939D02*
X327425Y-69025D01*
X328035Y-68415D01*
X328644Y-68111D01*
X329558D01*
X330137Y-69939D02*
X333794D01*
Y-69329D01*
X333489Y-68720D01*
X333184Y-68415D01*
X332575Y-68111D01*
X331661D01*
X331051Y-68415D01*
X330442Y-69025D01*
X330137Y-69939D01*
Y-70548D01*
X330442Y-71462D01*
X331051Y-72072D01*
X331661Y-72376D01*
X332575D01*
X333184Y-72072D01*
X333794Y-71462D01*
X340192Y-65978D02*
Y-72376D01*
Y-65978D02*
X342934D01*
X343849Y-66282D01*
X344153Y-66587D01*
X344458Y-67197D01*
Y-67806D01*
X344153Y-68415D01*
X343849Y-68720D01*
X342934Y-69025D01*
X340192D01*
X342325D02*
X344458Y-72376D01*
X349546Y-65978D02*
Y-72376D01*
Y-69025D02*
X348937Y-68415D01*
X348328Y-68111D01*
X347413D01*
X346804Y-68415D01*
X346195Y-69025D01*
X345890Y-69939D01*
Y-70548D01*
X346195Y-71462D01*
X346804Y-72072D01*
X347413Y-72376D01*
X348328D01*
X348937Y-72072D01*
X349546Y-71462D01*
X351557Y-71767D02*
X351253Y-72072D01*
X351557Y-72376D01*
X351862Y-72072D01*
X351557Y-71767D01*
X280110Y-85978D02*
Y-92376D01*
Y-85978D02*
X282852D01*
X283766Y-86282D01*
X284070Y-86587D01*
X284375Y-87196D01*
Y-87806D01*
X284070Y-88415D01*
X283766Y-88720D01*
X282852Y-89025D01*
X280110D02*
X282852D01*
X283766Y-89329D01*
X284070Y-89634D01*
X284375Y-90244D01*
Y-91158D01*
X284070Y-91767D01*
X283766Y-92072D01*
X282852Y-92376D01*
X280110D01*
X287331Y-88111D02*
X286721Y-88415D01*
X286112Y-89025D01*
X285807Y-89939D01*
Y-90548D01*
X286112Y-91462D01*
X286721Y-92072D01*
X287331Y-92376D01*
X288245D01*
X288854Y-92072D01*
X289464Y-91462D01*
X289768Y-90548D01*
Y-89939D01*
X289464Y-89025D01*
X288854Y-88415D01*
X288245Y-88111D01*
X287331D01*
X294826Y-89025D02*
X294217Y-88415D01*
X293607Y-88111D01*
X292693D01*
X292084Y-88415D01*
X291475Y-89025D01*
X291170Y-89939D01*
Y-90548D01*
X291475Y-91462D01*
X292084Y-92072D01*
X292693Y-92376D01*
X293607D01*
X294217Y-92072D01*
X294826Y-91462D01*
X299854Y-88111D02*
Y-92376D01*
Y-89025D02*
X299244Y-88415D01*
X298635Y-88111D01*
X297721D01*
X297112Y-88415D01*
X296502Y-89025D01*
X296197Y-89939D01*
Y-90548D01*
X296502Y-91462D01*
X297112Y-92072D01*
X297721Y-92376D01*
X298635D01*
X299244Y-92072D01*
X299854Y-91462D01*
X306588Y-85978D02*
Y-92376D01*
Y-85978D02*
X309330D01*
X310244Y-86282D01*
X310549Y-86587D01*
X310853Y-87196D01*
Y-87806D01*
X310549Y-88415D01*
X310244Y-88720D01*
X309330Y-89025D01*
X306588D01*
X308720D02*
X310853Y-92376D01*
X315942Y-88111D02*
Y-92376D01*
Y-89025D02*
X315332Y-88415D01*
X314723Y-88111D01*
X313809D01*
X313199Y-88415D01*
X312590Y-89025D01*
X312285Y-89939D01*
Y-90548D01*
X312590Y-91462D01*
X313199Y-92072D01*
X313809Y-92376D01*
X314723D01*
X315332Y-92072D01*
X315942Y-91462D01*
X318562Y-85978D02*
Y-91158D01*
X318867Y-92072D01*
X319476Y-92376D01*
X320086D01*
X317648Y-88111D02*
X319781D01*
X322523D02*
X321914Y-88415D01*
X321304Y-89025D01*
X321000Y-89939D01*
Y-90548D01*
X321304Y-91462D01*
X321914Y-92072D01*
X322523Y-92376D01*
X323437D01*
X324047Y-92072D01*
X324656Y-91462D01*
X324961Y-90548D01*
Y-89939D01*
X324656Y-89025D01*
X324047Y-88415D01*
X323437Y-88111D01*
X322523D01*
X326362D02*
Y-92376D01*
Y-89329D02*
X327276Y-88415D01*
X327886Y-88111D01*
X328800D01*
X329409Y-88415D01*
X329714Y-89329D01*
Y-92376D01*
X336417Y-85978D02*
Y-92376D01*
Y-85978D02*
X340378D01*
X336417Y-89025D02*
X338855D01*
X341110Y-85978D02*
Y-92376D01*
X344766D01*
X345772Y-91767D02*
X345467Y-92072D01*
X345772Y-92376D01*
X346076Y-92072D01*
X345772Y-91767D01*
X172200Y-150702D02*
Y-158700D01*
Y-150702D02*
X174866D01*
X176009Y-151083D01*
X176770Y-151844D01*
X177151Y-152606D01*
X177532Y-153749D01*
Y-155653D01*
X177151Y-156796D01*
X176770Y-157557D01*
X176009Y-158319D01*
X174866Y-158700D01*
X172200D01*
X179322Y-153368D02*
Y-158700D01*
Y-155653D02*
X179703Y-154510D01*
X180465Y-153749D01*
X181227Y-153368D01*
X182369D01*
X183855Y-150702D02*
X184236Y-151083D01*
X184616Y-150702D01*
X184236Y-150321D01*
X183855Y-150702D01*
X184236Y-153368D02*
Y-158700D01*
X186026Y-150702D02*
Y-158700D01*
X187701Y-150702D02*
Y-158700D01*
X195662Y-150702D02*
Y-158700D01*
Y-150702D02*
X198328D01*
X199470Y-151083D01*
X200232Y-151844D01*
X200613Y-152606D01*
X200994Y-153749D01*
Y-155653D01*
X200613Y-156796D01*
X200232Y-157557D01*
X199470Y-158319D01*
X198328Y-158700D01*
X195662D01*
X202784Y-153368D02*
Y-158700D01*
Y-155653D02*
X203165Y-154510D01*
X203926Y-153749D01*
X204688Y-153368D01*
X205831D01*
X211125D02*
Y-158700D01*
Y-154510D02*
X210363Y-153749D01*
X209601Y-153368D01*
X208459D01*
X207697Y-153749D01*
X206935Y-154510D01*
X206555Y-155653D01*
Y-156415D01*
X206935Y-157557D01*
X207697Y-158319D01*
X208459Y-158700D01*
X209601D01*
X210363Y-158319D01*
X211125Y-157557D01*
X213258Y-153368D02*
X214781Y-158700D01*
X216305Y-153368D02*
X214781Y-158700D01*
X216305Y-153368D02*
X217828Y-158700D01*
X219352Y-153368D02*
X217828Y-158700D01*
X221980Y-150702D02*
X222361Y-151083D01*
X222742Y-150702D01*
X222361Y-150321D01*
X221980Y-150702D01*
X222361Y-153368D02*
Y-158700D01*
X224151Y-153368D02*
Y-158700D01*
Y-154891D02*
X225293Y-153749D01*
X226055Y-153368D01*
X227198D01*
X227959Y-153749D01*
X228340Y-154891D01*
Y-158700D01*
X235006Y-153368D02*
Y-159462D01*
X234625Y-160604D01*
X234244Y-160985D01*
X233482Y-161366D01*
X232340D01*
X231578Y-160985D01*
X235006Y-154510D02*
X234244Y-153749D01*
X233482Y-153368D01*
X232340D01*
X231578Y-153749D01*
X230816Y-154510D01*
X230435Y-155653D01*
Y-156415D01*
X230816Y-157557D01*
X231578Y-158319D01*
X232340Y-158700D01*
X233482D01*
X234244Y-158319D01*
X235006Y-157557D01*
D22*
X-4163Y-113567D02*
Y-117630D01*
X-4417Y-118392D01*
X-4671Y-118646D01*
X-5179Y-118900D01*
X-5686D01*
X-6194Y-118646D01*
X-6448Y-118392D01*
X-6702Y-117630D01*
Y-117122D01*
X1017Y-114837D02*
X763Y-114329D01*
X255Y-113821D01*
X-253Y-113567D01*
X-1268D01*
X-1776Y-113821D01*
X-2284Y-114329D01*
X-2538Y-114837D01*
X-2792Y-115599D01*
Y-116868D01*
X-2538Y-117630D01*
X-2284Y-118138D01*
X-1776Y-118646D01*
X-1268Y-118900D01*
X-253D01*
X255Y-118646D01*
X763Y-118138D01*
X1017Y-117630D01*
X2515Y-113567D02*
Y-118900D01*
Y-113567D02*
X4546Y-118900D01*
X6578Y-113567D02*
X4546Y-118900D01*
X6578Y-113567D02*
Y-118900D01*
X8101Y-113567D02*
Y-118900D01*
X9218Y-113567D02*
Y-118900D01*
D23*
X340599Y78905D02*
Y80904D01*
Y79905D01*
X334601D01*
X335601Y78905D01*
X340599Y83903D02*
X339599D01*
Y84903D01*
X340599D01*
Y83903D01*
X339599Y88902D02*
X340599Y89901D01*
Y91901D01*
X339599Y92901D01*
X335601D01*
X334601Y91901D01*
Y89901D01*
X335601Y88902D01*
X336600D01*
X337600Y89901D01*
Y92901D01*
X340599Y98899D02*
Y94900D01*
X336600Y98899D01*
X335601D01*
X334601Y97899D01*
Y95899D01*
X335601Y94900D01*
X340599Y100898D02*
Y102897D01*
Y101898D01*
X336600D01*
Y100898D01*
X340599Y105896D02*
X336600D01*
Y108895D01*
X337600Y109895D01*
X340599D01*
X141405Y-15101D02*
X142405Y-14101D01*
X144404D01*
X145404Y-15101D01*
Y-16100D01*
X144404Y-17100D01*
X143404D01*
X144404D01*
X145404Y-18100D01*
Y-19099D01*
X144404Y-20099D01*
X142405D01*
X141405Y-19099D01*
X147403Y-20099D02*
Y-19099D01*
X148403D01*
Y-20099D01*
X147403D01*
X152401D02*
X154401D01*
X153401D01*
Y-14101D01*
X152401Y-15101D01*
X157400Y-14101D02*
X161398D01*
Y-15101D01*
X157400Y-19099D01*
Y-20099D01*
X163398D02*
X165397D01*
X164398D01*
Y-16100D01*
X163398D01*
X168396Y-20099D02*
Y-16100D01*
X171395D01*
X172395Y-17100D01*
Y-20099D01*
D24*
X309779Y-128785D02*
X309525Y-129547D01*
X309018Y-130055D01*
X308256Y-130309D01*
X308002D01*
X307240Y-130055D01*
X306733Y-129547D01*
X306479Y-128785D01*
Y-128531D01*
X306733Y-127769D01*
X307240Y-127262D01*
X308002Y-127008D01*
X308256D01*
X309018Y-127262D01*
X309525Y-127769D01*
X309779Y-128785D01*
Y-130055D01*
X309525Y-131324D01*
X309018Y-132086D01*
X308256Y-132340D01*
X307748D01*
X306986Y-132086D01*
X306733Y-131578D01*
X311227Y-133102D02*
X314782Y-127008D01*
X315137Y-128023D02*
X315645Y-127769D01*
X316407Y-127008D01*
Y-132340D01*
X322602Y-127008D02*
X320063Y-132340D01*
X319047Y-127008D02*
X322602D01*
X323796Y-133102D02*
X327350Y-127008D01*
X327960Y-128277D02*
Y-128023D01*
X328214Y-127516D01*
X328468Y-127262D01*
X328976Y-127008D01*
X329991D01*
X330499Y-127262D01*
X330753Y-127516D01*
X331007Y-128023D01*
Y-128531D01*
X330753Y-129039D01*
X330245Y-129801D01*
X327706Y-132340D01*
X331261D01*
X333978Y-127008D02*
X333216Y-127262D01*
X332708Y-128023D01*
X332454Y-129293D01*
Y-130055D01*
X332708Y-131324D01*
X333216Y-132086D01*
X333978Y-132340D01*
X334486D01*
X335247Y-132086D01*
X335755Y-131324D01*
X336009Y-130055D01*
Y-129293D01*
X335755Y-128023D01*
X335247Y-127262D01*
X334486Y-127008D01*
X333978D01*
X337203Y-128023D02*
X337710Y-127769D01*
X338472Y-127008D01*
Y-132340D01*
X341367Y-128277D02*
Y-128023D01*
X341621Y-127516D01*
X341875Y-127262D01*
X342382Y-127008D01*
X343398D01*
X343906Y-127262D01*
X344160Y-127516D01*
X344414Y-128023D01*
Y-128531D01*
X344160Y-129039D01*
X343652Y-129801D01*
X341113Y-132340D01*
X344668D01*
X65314Y-60294D02*
X61658Y-50696D01*
X58001Y-60294D01*
X59373Y-57095D02*
X63943D01*
X73038Y-55267D02*
X72124Y-54352D01*
X71210Y-53895D01*
X69839D01*
X68925Y-54352D01*
X68011Y-55267D01*
X67554Y-56638D01*
Y-57552D01*
X68011Y-58923D01*
X68925Y-59837D01*
X69839Y-60294D01*
X71210D01*
X72124Y-59837D01*
X73038Y-58923D01*
X76466Y-50696D02*
Y-58466D01*
X76923Y-59837D01*
X77837Y-60294D01*
X78751D01*
X75095Y-53895D02*
X78294D01*
X81036Y-50696D02*
X81494Y-51153D01*
X81950Y-50696D01*
X81494Y-50239D01*
X81036Y-50696D01*
X81494Y-53895D02*
Y-60294D01*
X83642Y-53895D02*
X86384Y-60294D01*
X89126Y-53895D02*
X86384Y-60294D01*
X90680Y-56638D02*
X96165D01*
Y-55724D01*
X95708Y-54809D01*
X95250Y-54352D01*
X94336Y-53895D01*
X92965D01*
X92051Y-54352D01*
X91137Y-55267D01*
X90680Y-56638D01*
Y-57552D01*
X91137Y-58923D01*
X92051Y-59837D01*
X92965Y-60294D01*
X94336D01*
X95250Y-59837D01*
X96165Y-58923D01*
X105763Y-50696D02*
X108048Y-60294D01*
X110333Y-50696D02*
X108048Y-60294D01*
X110333Y-50696D02*
X112618Y-60294D01*
X114903Y-50696D02*
X112618Y-60294D01*
X122308Y-53895D02*
Y-60294D01*
Y-55267D02*
X121394Y-54352D01*
X120479Y-53895D01*
X119108D01*
X118194Y-54352D01*
X117280Y-55267D01*
X116823Y-56638D01*
Y-57552D01*
X117280Y-58923D01*
X118194Y-59837D01*
X119108Y-60294D01*
X120479D01*
X121394Y-59837D01*
X122308Y-58923D01*
X124867Y-53895D02*
X127609Y-60294D01*
X130352Y-53895D02*
X127609Y-60294D01*
X131905Y-56638D02*
X137390D01*
Y-55724D01*
X136933Y-54809D01*
X136476Y-54352D01*
X135562Y-53895D01*
X134191D01*
X133277Y-54352D01*
X132363Y-55267D01*
X131905Y-56638D01*
Y-57552D01*
X132363Y-58923D01*
X133277Y-59837D01*
X134191Y-60294D01*
X135562D01*
X136476Y-59837D01*
X137390Y-58923D01*
X118856Y-89187D02*
X118399Y-88273D01*
X117484Y-87359D01*
X116570Y-86902D01*
X114742D01*
X113828Y-87359D01*
X112914Y-88273D01*
X112457Y-89187D01*
X112000Y-90558D01*
Y-92844D01*
X112457Y-94215D01*
X112914Y-95129D01*
X113828Y-96043D01*
X114742Y-96500D01*
X116570D01*
X117484Y-96043D01*
X118399Y-95129D01*
X118856Y-94215D01*
X128408Y-89187D02*
X127951Y-88273D01*
X127037Y-87359D01*
X126123Y-86902D01*
X124294D01*
X123380Y-87359D01*
X122466Y-88273D01*
X122009Y-89187D01*
X121552Y-90558D01*
Y-92844D01*
X122009Y-94215D01*
X122466Y-95129D01*
X123380Y-96043D01*
X124294Y-96500D01*
X126123D01*
X127037Y-96043D01*
X127951Y-95129D01*
X128408Y-94215D01*
X132933Y-86902D02*
X133390Y-87359D01*
X133847Y-86902D01*
X133390Y-86445D01*
X132933Y-86902D01*
X133390Y-90101D02*
Y-97871D01*
X132933Y-99242D01*
X132019Y-99699D01*
X131105D01*
X141114Y-90101D02*
Y-96500D01*
Y-91473D02*
X140200Y-90558D01*
X139286Y-90101D01*
X137914D01*
X137000Y-90558D01*
X136086Y-91473D01*
X135629Y-92844D01*
Y-93758D01*
X136086Y-95129D01*
X137000Y-96043D01*
X137914Y-96500D01*
X139286D01*
X140200Y-96043D01*
X141114Y-95129D01*
X143673Y-90101D02*
Y-96500D01*
Y-91930D02*
X145044Y-90558D01*
X145958Y-90101D01*
X147330D01*
X148244Y-90558D01*
X148701Y-91930D01*
Y-96500D01*
Y-91930D02*
X150072Y-90558D01*
X150986Y-90101D01*
X152357D01*
X153271Y-90558D01*
X153728Y-91930D01*
Y-96500D01*
X156745Y-90101D02*
Y-96500D01*
Y-91930D02*
X158116Y-90558D01*
X159030Y-90101D01*
X160401D01*
X161315Y-90558D01*
X161772Y-91930D01*
Y-96500D01*
Y-91930D02*
X163143Y-90558D01*
X164057Y-90101D01*
X165428D01*
X166343Y-90558D01*
X166800Y-91930D01*
Y-96500D01*
X169816Y-92844D02*
X175301D01*
Y-91930D01*
X174844Y-91015D01*
X174387Y-90558D01*
X173472Y-90101D01*
X172101D01*
X171187Y-90558D01*
X170273Y-91473D01*
X169816Y-92844D01*
Y-93758D01*
X170273Y-95129D01*
X171187Y-96043D01*
X172101Y-96500D01*
X173472D01*
X174387Y-96043D01*
X175301Y-95129D01*
X177357Y-90101D02*
Y-96500D01*
Y-92844D02*
X177814Y-91473D01*
X178728Y-90558D01*
X179643Y-90101D01*
X181014D01*
X236505Y-130481D02*
Y-130227D01*
X236759Y-129720D01*
X237013Y-129466D01*
X237521Y-129212D01*
X238537D01*
X239044Y-129466D01*
X239298Y-129720D01*
X239552Y-130227D01*
Y-130735D01*
X239298Y-131243D01*
X238790Y-132005D01*
X236251Y-134544D01*
X239806D01*
D25*
X276727Y-61876D02*
X272918Y-51878D01*
X269110Y-61876D01*
X270538Y-58544D02*
X275299D01*
X284773Y-56639D02*
X283821Y-55687D01*
X282868Y-55211D01*
X281440D01*
X280488Y-55687D01*
X279536Y-56639D01*
X279060Y-58068D01*
Y-59020D01*
X279536Y-60448D01*
X280488Y-61400D01*
X281440Y-61876D01*
X282868D01*
X283821Y-61400D01*
X284773Y-60448D01*
X288343Y-51878D02*
Y-59972D01*
X288820Y-61400D01*
X289772Y-61876D01*
X290724D01*
X286915Y-55211D02*
X290248D01*
X293104Y-51878D02*
X293580Y-52355D01*
X294057Y-51878D01*
X293580Y-51402D01*
X293104Y-51878D01*
X293580Y-55211D02*
Y-61876D01*
X295818Y-55211D02*
X298675Y-61876D01*
X301531Y-55211D02*
X298675Y-61876D01*
X303150Y-58068D02*
X308863D01*
Y-57116D01*
X308387Y-56163D01*
X307911Y-55687D01*
X306959Y-55211D01*
X305530D01*
X304578Y-55687D01*
X303626Y-56639D01*
X303150Y-58068D01*
Y-59020D01*
X303626Y-60448D01*
X304578Y-61400D01*
X305530Y-61876D01*
X306959D01*
X307911Y-61400D01*
X308863Y-60448D01*
X318861Y-51878D02*
X321241Y-61876D01*
X323622Y-51878D02*
X321241Y-61876D01*
X323622Y-51878D02*
X326002Y-61876D01*
X328382Y-51878D02*
X326002Y-61876D01*
X336095Y-55211D02*
Y-61876D01*
Y-56639D02*
X335143Y-55687D01*
X334191Y-55211D01*
X332763D01*
X331810Y-55687D01*
X330858Y-56639D01*
X330382Y-58068D01*
Y-59020D01*
X330858Y-60448D01*
X331810Y-61400D01*
X332763Y-61876D01*
X334191D01*
X335143Y-61400D01*
X336095Y-60448D01*
X338761Y-55211D02*
X341618Y-61876D01*
X344474Y-55211D02*
X341618Y-61876D01*
X346093Y-58068D02*
X351806D01*
Y-57116D01*
X351330Y-56163D01*
X350854Y-55687D01*
X349902Y-55211D01*
X348473D01*
X347521Y-55687D01*
X346569Y-56639D01*
X346093Y-58068D01*
Y-59020D01*
X346569Y-60448D01*
X347521Y-61400D01*
X348473Y-61876D01*
X349902D01*
X350854Y-61400D01*
X351806Y-60448D01*
X401100Y-43602D02*
Y-53600D01*
Y-43602D02*
X407765Y-53600D01*
Y-43602D02*
Y-53600D01*
X413383Y-43602D02*
X412431Y-44078D01*
X411479Y-45030D01*
X411003Y-45983D01*
X410527Y-47411D01*
Y-49791D01*
X411003Y-51220D01*
X411479Y-52172D01*
X412431Y-53124D01*
X413383Y-53600D01*
X415287D01*
X416240Y-53124D01*
X417192Y-52172D01*
X417668Y-51220D01*
X418144Y-49791D01*
Y-47411D01*
X417668Y-45983D01*
X417192Y-45030D01*
X416240Y-44078D01*
X415287Y-43602D01*
X413383D01*
X423809D02*
Y-53600D01*
X420477Y-43602D02*
X427142D01*
X434521D02*
X428332D01*
Y-53600D01*
X434521D01*
X428332Y-48363D02*
X432141D01*
X442853Y-45030D02*
X441901Y-44078D01*
X440473Y-43602D01*
X438568D01*
X437140Y-44078D01*
X436188Y-45030D01*
Y-45983D01*
X436664Y-46935D01*
X437140Y-47411D01*
X438092Y-47887D01*
X440949Y-48839D01*
X441901Y-49315D01*
X442377Y-49791D01*
X442853Y-50744D01*
Y-52172D01*
X441901Y-53124D01*
X440473Y-53600D01*
X438568D01*
X437140Y-53124D01*
X436188Y-52172D01*
X401800Y-69907D02*
X402752Y-69430D01*
X404180Y-68002D01*
Y-78000D01*
X409132Y-66098D02*
X410084Y-67050D01*
X411036Y-68478D01*
X411988Y-70383D01*
X412464Y-72763D01*
Y-74667D01*
X411988Y-77048D01*
X411036Y-78952D01*
X410084Y-80380D01*
X409132Y-81333D01*
X410084Y-67050D02*
X411036Y-68954D01*
X411512Y-70383D01*
X411988Y-72763D01*
Y-74667D01*
X411512Y-77048D01*
X411036Y-78476D01*
X410084Y-80380D01*
X422748Y-68002D02*
Y-78000D01*
Y-68002D02*
X426557Y-78000D01*
X430365Y-68002D02*
X426557Y-78000D01*
X430365Y-68002D02*
Y-78000D01*
X440839D02*
X437031Y-68002D01*
X433222Y-78000D01*
X434650Y-74667D02*
X439411D01*
X446505Y-68002D02*
Y-78000D01*
X443172Y-68002D02*
X449837D01*
X457217D02*
X451027D01*
Y-78000D01*
X457217D01*
X451027Y-72763D02*
X454836D01*
X458883Y-68002D02*
Y-78000D01*
Y-68002D02*
X463168D01*
X464596Y-68478D01*
X465072Y-68954D01*
X465548Y-69907D01*
Y-70859D01*
X465072Y-71811D01*
X464596Y-72287D01*
X463168Y-72763D01*
X458883D01*
X462216D02*
X465548Y-78000D01*
X467786Y-68002D02*
Y-78000D01*
X477498D02*
X473689Y-68002D01*
X469881Y-78000D01*
X471309Y-74667D02*
X476070D01*
X479831Y-68002D02*
Y-78000D01*
X485544D01*
X494494Y-68002D02*
Y-78000D01*
X503255Y-69430D02*
X502302Y-68478D01*
X500874Y-68002D01*
X498970D01*
X497541Y-68478D01*
X496589Y-69430D01*
Y-70383D01*
X497065Y-71335D01*
X497541Y-71811D01*
X498494Y-72287D01*
X501350Y-73239D01*
X502302Y-73715D01*
X502778Y-74191D01*
X503255Y-75143D01*
Y-76572D01*
X502302Y-77524D01*
X500874Y-78000D01*
X498970D01*
X497541Y-77524D01*
X496589Y-76572D01*
X513347Y-68002D02*
Y-78000D01*
Y-68002D02*
X519537D01*
X513347Y-72763D02*
X517156D01*
X520679Y-68002D02*
Y-78000D01*
Y-68002D02*
X524964D01*
X526392Y-68478D01*
X526868Y-68954D01*
X527345Y-69907D01*
Y-70859D01*
X526868Y-71811D01*
X526392Y-72287D01*
X524964Y-72763D01*
X520679D01*
X524012D02*
X527345Y-78000D01*
X534343Y-68002D02*
X529582Y-74667D01*
X536724D01*
X534343Y-68002D02*
Y-78000D01*
X400976Y-92283D02*
Y-91807D01*
X401452Y-90854D01*
X401928Y-90378D01*
X402880Y-89902D01*
X404785D01*
X405737Y-90378D01*
X406213Y-90854D01*
X406689Y-91807D01*
Y-92759D01*
X406213Y-93711D01*
X405261Y-95139D01*
X400500Y-99900D01*
X407165D01*
X409403Y-87998D02*
X410355Y-88950D01*
X411307Y-90378D01*
X412259Y-92283D01*
X412736Y-94663D01*
Y-96567D01*
X412259Y-98948D01*
X411307Y-100852D01*
X410355Y-102280D01*
X409403Y-103233D01*
X410355Y-88950D02*
X411307Y-90854D01*
X411783Y-92283D01*
X412259Y-94663D01*
Y-96567D01*
X411783Y-98948D01*
X411307Y-100376D01*
X410355Y-102280D01*
X425876Y-89902D02*
X424447Y-90378D01*
X423495Y-91807D01*
X423019Y-94187D01*
Y-95615D01*
X423495Y-97996D01*
X424447Y-99424D01*
X425876Y-99900D01*
X426828D01*
X428256Y-99424D01*
X429208Y-97996D01*
X429684Y-95615D01*
Y-94187D01*
X429208Y-91807D01*
X428256Y-90378D01*
X426828Y-89902D01*
X425876D01*
X432398Y-98948D02*
X431922Y-99424D01*
X432398Y-99900D01*
X432874Y-99424D01*
X432398Y-98948D01*
X437921Y-89902D02*
X436492Y-90378D01*
X435540Y-91807D01*
X435064Y-94187D01*
Y-95615D01*
X435540Y-97996D01*
X436492Y-99424D01*
X437921Y-99900D01*
X438873D01*
X440301Y-99424D01*
X441253Y-97996D01*
X441729Y-95615D01*
Y-94187D01*
X441253Y-91807D01*
X440301Y-90378D01*
X438873Y-89902D01*
X437921D01*
X443967Y-91807D02*
X444919Y-91330D01*
X446347Y-89902D01*
Y-99900D01*
X454155Y-89902D02*
X452727Y-90378D01*
X451775Y-91807D01*
X451299Y-94187D01*
Y-95615D01*
X451775Y-97996D01*
X452727Y-99424D01*
X454155Y-99900D01*
X455107D01*
X456536Y-99424D01*
X457488Y-97996D01*
X457964Y-95615D01*
Y-94187D01*
X457488Y-91807D01*
X456536Y-90378D01*
X455107Y-89902D01*
X454155D01*
X460678D02*
X460202Y-90378D01*
Y-93235D01*
X460678Y-90378D02*
X460202Y-93235D01*
X460678Y-89902D02*
X461154Y-90378D01*
X460202Y-93235D01*
X464962Y-89902D02*
X464486Y-90378D01*
Y-93235D01*
X464962Y-90378D02*
X464486Y-93235D01*
X464962Y-89902D02*
X465438Y-90378D01*
X464486Y-93235D01*
X478721Y-89902D02*
Y-99900D01*
X475389Y-89902D02*
X482054D01*
X483244D02*
Y-99900D01*
X489909Y-89902D02*
Y-99900D01*
X483244Y-94663D02*
X489909D01*
X492671Y-89902D02*
Y-99900D01*
X501907Y-92283D02*
X501431Y-91330D01*
X500479Y-90378D01*
X499526Y-89902D01*
X497622D01*
X496670Y-90378D01*
X495718Y-91330D01*
X495242Y-92283D01*
X494766Y-93711D01*
Y-96091D01*
X495242Y-97520D01*
X495718Y-98472D01*
X496670Y-99424D01*
X497622Y-99900D01*
X499526D01*
X500479Y-99424D01*
X501431Y-98472D01*
X501907Y-97520D01*
X504716Y-89902D02*
Y-99900D01*
X511381Y-89902D02*
X504716Y-96567D01*
X507096Y-94187D02*
X511381Y-99900D01*
X521950Y-92283D02*
Y-91807D01*
X522426Y-90854D01*
X522902Y-90378D01*
X523854Y-89902D01*
X525759D01*
X526711Y-90378D01*
X527187Y-90854D01*
X527663Y-91807D01*
Y-92759D01*
X527187Y-93711D01*
X526235Y-95139D01*
X521474Y-99900D01*
X528139D01*
X538232Y-89902D02*
Y-99900D01*
X543945D01*
X552658D02*
X548849Y-89902D01*
X545040Y-99900D01*
X546469Y-96567D02*
X551230D01*
X554991Y-89902D02*
X558799Y-94663D01*
Y-99900D01*
X562608Y-89902D02*
X558799Y-94663D01*
X570083Y-89902D02*
X563894D01*
Y-99900D01*
X570083D01*
X563894Y-94663D02*
X567702D01*
X571749Y-89902D02*
Y-99900D01*
Y-89902D02*
X576034D01*
X577462Y-90378D01*
X577938Y-90854D01*
X578414Y-91807D01*
Y-92759D01*
X577938Y-93711D01*
X577462Y-94187D01*
X576034Y-94663D01*
X571749D01*
X575082D02*
X578414Y-99900D01*
X588507Y-89902D02*
Y-99900D01*
Y-89902D02*
X592792D01*
X594220Y-90378D01*
X594697Y-90854D01*
X595173Y-91807D01*
Y-92759D01*
X594697Y-93711D01*
X594220Y-94187D01*
X592792Y-94663D01*
X588507D02*
X592792D01*
X594220Y-95139D01*
X594697Y-95615D01*
X595173Y-96567D01*
Y-97996D01*
X594697Y-98948D01*
X594220Y-99424D01*
X592792Y-99900D01*
X588507D01*
X600267Y-89902D02*
X599314Y-90378D01*
X598362Y-91330D01*
X597886Y-92283D01*
X597410Y-93711D01*
Y-96091D01*
X597886Y-97520D01*
X598362Y-98472D01*
X599314Y-99424D01*
X600267Y-99900D01*
X602171D01*
X603123Y-99424D01*
X604075Y-98472D01*
X604552Y-97520D01*
X605028Y-96091D01*
Y-93711D01*
X604552Y-92283D01*
X604075Y-91330D01*
X603123Y-90378D01*
X602171Y-89902D01*
X600267D01*
X614978Y-99900D02*
X611169Y-89902D01*
X607360Y-99900D01*
X608789Y-96567D02*
X613550D01*
X617311Y-89902D02*
Y-99900D01*
Y-89902D02*
X621595D01*
X623024Y-90378D01*
X623500Y-90854D01*
X623976Y-91807D01*
Y-92759D01*
X623500Y-93711D01*
X623024Y-94187D01*
X621595Y-94663D01*
X617311D01*
X620643D02*
X623976Y-99900D01*
X626214Y-89902D02*
Y-99900D01*
Y-89902D02*
X629546D01*
X630974Y-90378D01*
X631927Y-91330D01*
X632403Y-92283D01*
X632879Y-93711D01*
Y-96091D01*
X632403Y-97520D01*
X631927Y-98472D01*
X630974Y-99424D01*
X629546Y-99900D01*
X626214D01*
X401952Y-110502D02*
X407189D01*
X404333Y-114311D01*
X405761D01*
X406713Y-114787D01*
X407189Y-115263D01*
X407665Y-116691D01*
Y-117643D01*
X407189Y-119072D01*
X406237Y-120024D01*
X404809Y-120500D01*
X403380D01*
X401952Y-120024D01*
X401476Y-119548D01*
X401000Y-118596D01*
X409903Y-108598D02*
X410855Y-109550D01*
X411807Y-110978D01*
X412759Y-112883D01*
X413236Y-115263D01*
Y-117167D01*
X412759Y-119548D01*
X411807Y-121452D01*
X410855Y-122880D01*
X409903Y-123833D01*
X410855Y-109550D02*
X411807Y-111454D01*
X412283Y-112883D01*
X412759Y-115263D01*
Y-117167D01*
X412283Y-119548D01*
X411807Y-120976D01*
X410855Y-122880D01*
X423519Y-110502D02*
X425899Y-120500D01*
X428280Y-110502D02*
X425899Y-120500D01*
X428280Y-110502D02*
X430660Y-120500D01*
X433041Y-110502D02*
X430660Y-120500D01*
X435040Y-110502D02*
Y-120500D01*
X441706Y-110502D02*
Y-120500D01*
X435040Y-115263D02*
X441706D01*
X444467Y-110502D02*
Y-120500D01*
X449894Y-110502D02*
Y-120500D01*
X446562Y-110502D02*
X453227D01*
X460606D02*
X454417D01*
Y-120500D01*
X460606D01*
X454417Y-115263D02*
X458226D01*
X476793Y-111930D02*
X475841Y-110978D01*
X474413Y-110502D01*
X472508D01*
X471080Y-110978D01*
X470128Y-111930D01*
Y-112883D01*
X470604Y-113835D01*
X471080Y-114311D01*
X472032Y-114787D01*
X474889Y-115739D01*
X475841Y-116215D01*
X476317Y-116691D01*
X476793Y-117643D01*
Y-119072D01*
X475841Y-120024D01*
X474413Y-120500D01*
X472508D01*
X471080Y-120024D01*
X470128Y-119072D01*
X479031Y-110502D02*
Y-120500D01*
X481126Y-110502D02*
Y-120500D01*
X486839D01*
X487934Y-110502D02*
Y-120500D01*
X494599Y-110502D02*
X487934Y-117167D01*
X490314Y-114787D02*
X494599Y-120500D01*
X503502Y-111930D02*
X502550Y-110978D01*
X501121Y-110502D01*
X499217D01*
X497789Y-110978D01*
X496837Y-111930D01*
Y-112883D01*
X497313Y-113835D01*
X497789Y-114311D01*
X498741Y-114787D01*
X501597Y-115739D01*
X502550Y-116215D01*
X503026Y-116691D01*
X503502Y-117643D01*
Y-119072D01*
X502550Y-120024D01*
X501121Y-120500D01*
X499217D01*
X497789Y-120024D01*
X496837Y-119072D01*
X512881Y-112883D02*
X512405Y-111930D01*
X511452Y-110978D01*
X510500Y-110502D01*
X508596D01*
X507644Y-110978D01*
X506692Y-111930D01*
X506215Y-112883D01*
X505739Y-114311D01*
Y-116691D01*
X506215Y-118120D01*
X506692Y-119072D01*
X507644Y-120024D01*
X508596Y-120500D01*
X510500D01*
X511452Y-120024D01*
X512405Y-119072D01*
X512881Y-118120D01*
X515690Y-110502D02*
Y-120500D01*
Y-110502D02*
X519975D01*
X521403Y-110978D01*
X521879Y-111454D01*
X522355Y-112407D01*
Y-113359D01*
X521879Y-114311D01*
X521403Y-114787D01*
X519975Y-115263D01*
X515690D01*
X519022D02*
X522355Y-120500D01*
X530782Y-110502D02*
X524593D01*
Y-120500D01*
X530782D01*
X524593Y-115263D02*
X528401D01*
X538637Y-110502D02*
X532448D01*
Y-120500D01*
X538637D01*
X532448Y-115263D02*
X536257D01*
X540304Y-110502D02*
Y-120500D01*
Y-110502D02*
X546969Y-120500D01*
Y-110502D02*
Y-120500D01*
X560918Y-110502D02*
Y-120500D01*
X557585Y-110502D02*
X564251D01*
X568297D02*
X567345Y-110978D01*
X566393Y-111930D01*
X565917Y-112883D01*
X565441Y-114311D01*
Y-116691D01*
X565917Y-118120D01*
X566393Y-119072D01*
X567345Y-120024D01*
X568297Y-120500D01*
X570202D01*
X571154Y-120024D01*
X572106Y-119072D01*
X572582Y-118120D01*
X573058Y-116691D01*
Y-114311D01*
X572582Y-112883D01*
X572106Y-111930D01*
X571154Y-110978D01*
X570202Y-110502D01*
X568297D01*
X575391Y-115739D02*
X579676D01*
X581104Y-115263D01*
X581580Y-114787D01*
X582056Y-113835D01*
Y-112407D01*
X581580Y-111454D01*
X581104Y-110978D01*
X579676Y-110502D01*
X575391D01*
Y-120500D01*
X592149Y-110502D02*
Y-120500D01*
X597863D01*
X606575D02*
X602766Y-110502D01*
X598958Y-120500D01*
X600386Y-117167D02*
X605147D01*
X608908Y-110502D02*
X612716Y-115263D01*
Y-120500D01*
X616525Y-110502D02*
X612716Y-115263D01*
X624000Y-110502D02*
X617811D01*
Y-120500D01*
X624000D01*
X617811Y-115263D02*
X621619D01*
X625666Y-110502D02*
Y-120500D01*
Y-110502D02*
X629951D01*
X631379Y-110978D01*
X631855Y-111454D01*
X632331Y-112407D01*
Y-113359D01*
X631855Y-114311D01*
X631379Y-114787D01*
X629951Y-115263D01*
X625666D01*
X628999D02*
X632331Y-120500D01*
X405261Y-132002D02*
X400500Y-138667D01*
X407641D01*
X405261Y-132002D02*
Y-142000D01*
X409403Y-130098D02*
X410355Y-131050D01*
X411307Y-132478D01*
X412259Y-134383D01*
X412736Y-136763D01*
Y-138667D01*
X412259Y-141048D01*
X411307Y-142952D01*
X410355Y-144380D01*
X409403Y-145333D01*
X410355Y-131050D02*
X411307Y-132954D01*
X411783Y-134383D01*
X412259Y-136763D01*
Y-138667D01*
X411783Y-141048D01*
X411307Y-142476D01*
X410355Y-144380D01*
X430160Y-134383D02*
X429684Y-133430D01*
X428732Y-132478D01*
X427780Y-132002D01*
X425876D01*
X424923Y-132478D01*
X423971Y-133430D01*
X423495Y-134383D01*
X423019Y-135811D01*
Y-138191D01*
X423495Y-139620D01*
X423971Y-140572D01*
X424923Y-141524D01*
X425876Y-142000D01*
X427780D01*
X428732Y-141524D01*
X429684Y-140572D01*
X430160Y-139620D01*
Y-138191D01*
X427780D02*
X430160D01*
X432445Y-132002D02*
Y-142000D01*
Y-132002D02*
X436730D01*
X438159Y-132478D01*
X438635Y-132954D01*
X439111Y-133906D01*
Y-134859D01*
X438635Y-135811D01*
X438159Y-136287D01*
X436730Y-136763D01*
X432445D01*
X435778D02*
X439111Y-142000D01*
X447538Y-132002D02*
X441348D01*
Y-142000D01*
X447538D01*
X441348Y-136763D02*
X445157D01*
X455393Y-132002D02*
X449204D01*
Y-142000D01*
X455393D01*
X449204Y-136763D02*
X453013D01*
X457059Y-132002D02*
Y-142000D01*
Y-132002D02*
X463725Y-142000D01*
Y-132002D02*
Y-142000D01*
X481006Y-133430D02*
X480054Y-132478D01*
X478626Y-132002D01*
X476722D01*
X475293Y-132478D01*
X474341Y-133430D01*
Y-134383D01*
X474817Y-135335D01*
X475293Y-135811D01*
X476246Y-136287D01*
X479102Y-137239D01*
X480054Y-137715D01*
X480531Y-138191D01*
X481006Y-139144D01*
Y-140572D01*
X480054Y-141524D01*
X478626Y-142000D01*
X476722D01*
X475293Y-141524D01*
X474341Y-140572D01*
X486101Y-132002D02*
X485148Y-132478D01*
X484196Y-133430D01*
X483720Y-134383D01*
X483244Y-135811D01*
Y-138191D01*
X483720Y-139620D01*
X484196Y-140572D01*
X485148Y-141524D01*
X486101Y-142000D01*
X488005D01*
X488957Y-141524D01*
X489909Y-140572D01*
X490385Y-139620D01*
X490862Y-138191D01*
Y-135811D01*
X490385Y-134383D01*
X489909Y-133430D01*
X488957Y-132478D01*
X488005Y-132002D01*
X486101D01*
X493194D02*
Y-142000D01*
X498908D01*
X500002Y-132002D02*
Y-142000D01*
Y-132002D02*
X503335D01*
X504763Y-132478D01*
X505716Y-133430D01*
X506192Y-134383D01*
X506668Y-135811D01*
Y-138191D01*
X506192Y-139620D01*
X505716Y-140572D01*
X504763Y-141524D01*
X503335Y-142000D01*
X500002D01*
X515095Y-132002D02*
X508905D01*
Y-142000D01*
X515095D01*
X508905Y-136763D02*
X512714D01*
X516761Y-132002D02*
Y-142000D01*
Y-132002D02*
X521046D01*
X522474Y-132478D01*
X522950Y-132954D01*
X523426Y-133906D01*
Y-134859D01*
X522950Y-135811D01*
X522474Y-136287D01*
X521046Y-136763D01*
X516761D01*
X520093D02*
X523426Y-142000D01*
X533519Y-132002D02*
Y-142000D01*
Y-132002D02*
X537328Y-142000D01*
X541137Y-132002D02*
X537328Y-142000D01*
X541137Y-132002D02*
Y-142000D01*
X551611D02*
X547802Y-132002D01*
X543993Y-142000D01*
X545421Y-138667D02*
X550182D01*
X560608Y-133430D02*
X559656Y-132478D01*
X558228Y-132002D01*
X556324D01*
X554895Y-132478D01*
X553943Y-133430D01*
Y-134383D01*
X554419Y-135335D01*
X554895Y-135811D01*
X555848Y-136287D01*
X558704Y-137239D01*
X559656Y-137715D01*
X560132Y-138191D01*
X560608Y-139144D01*
Y-140572D01*
X559656Y-141524D01*
X558228Y-142000D01*
X556324D01*
X554895Y-141524D01*
X553943Y-140572D01*
X562846Y-132002D02*
Y-142000D01*
X569511Y-132002D02*
X562846Y-138667D01*
X565227Y-136287D02*
X569511Y-142000D01*
X579604Y-132002D02*
Y-142000D01*
Y-132002D02*
X583889D01*
X585318Y-132478D01*
X585794Y-132954D01*
X586270Y-133906D01*
Y-134859D01*
X585794Y-135811D01*
X585318Y-136287D01*
X583889Y-136763D01*
X579604D02*
X583889D01*
X585318Y-137239D01*
X585794Y-137715D01*
X586270Y-138667D01*
Y-140096D01*
X585794Y-141048D01*
X585318Y-141524D01*
X583889Y-142000D01*
X579604D01*
X591364Y-132002D02*
X590412Y-132478D01*
X589460Y-133430D01*
X588983Y-134383D01*
X588507Y-135811D01*
Y-138191D01*
X588983Y-139620D01*
X589460Y-140572D01*
X590412Y-141524D01*
X591364Y-142000D01*
X593268D01*
X594220Y-141524D01*
X595173Y-140572D01*
X595649Y-139620D01*
X596125Y-138191D01*
Y-135811D01*
X595649Y-134383D01*
X595173Y-133430D01*
X594220Y-132478D01*
X593268Y-132002D01*
X591364D01*
X601790D02*
Y-142000D01*
X598458Y-132002D02*
X605123D01*
X606313D02*
Y-142000D01*
X612978Y-132002D02*
Y-142000D01*
X606313Y-136763D02*
X612978D01*
X630260Y-133430D02*
X629308Y-132478D01*
X627880Y-132002D01*
X625976D01*
X624547Y-132478D01*
X623595Y-133430D01*
Y-134383D01*
X624071Y-135335D01*
X624547Y-135811D01*
X625499Y-136287D01*
X628356Y-137239D01*
X629308Y-137715D01*
X629784Y-138191D01*
X630260Y-139144D01*
Y-140572D01*
X629308Y-141524D01*
X627880Y-142000D01*
X625976D01*
X624547Y-141524D01*
X623595Y-140572D01*
X632498Y-132002D02*
Y-142000D01*
X634593Y-132002D02*
Y-142000D01*
Y-132002D02*
X637925D01*
X639354Y-132478D01*
X640306Y-133430D01*
X640782Y-134383D01*
X641258Y-135811D01*
Y-138191D01*
X640782Y-139620D01*
X640306Y-140572D01*
X639354Y-141524D01*
X637925Y-142000D01*
X634593D01*
X649685Y-132002D02*
X643496D01*
Y-142000D01*
X649685D01*
X643496Y-136763D02*
X647304D01*
X658016Y-133430D02*
X657064Y-132478D01*
X655636Y-132002D01*
X653731D01*
X652303Y-132478D01*
X651351Y-133430D01*
Y-134383D01*
X651827Y-135335D01*
X652303Y-135811D01*
X653255Y-136287D01*
X656112Y-137239D01*
X657064Y-137715D01*
X657540Y-138191D01*
X658016Y-139144D01*
Y-140572D01*
X657064Y-141524D01*
X655636Y-142000D01*
X653731D01*
X652303Y-141524D01*
X651351Y-140572D01*
D26*
X324810Y-150731D02*
X324556Y-150224D01*
X324048Y-149716D01*
X323541Y-149462D01*
X322525D01*
X322017Y-149716D01*
X321509Y-150224D01*
X321255Y-150731D01*
X321002Y-151493D01*
Y-152763D01*
X321255Y-153524D01*
X321509Y-154032D01*
X322017Y-154540D01*
X322525Y-154794D01*
X323541D01*
X324048Y-154540D01*
X324556Y-154032D01*
X324810Y-153524D01*
Y-152763D01*
X323541D02*
X324810D01*
X329330Y-149462D02*
X326029D01*
Y-154794D01*
X329330D01*
X326029Y-152001D02*
X328060D01*
X330219Y-149462D02*
Y-154794D01*
Y-149462D02*
X332504D01*
X333266Y-149716D01*
X333520Y-149970D01*
X333773Y-150478D01*
Y-150985D01*
X333520Y-151493D01*
X333266Y-151747D01*
X332504Y-152001D01*
X330219D01*
X331996D02*
X333773Y-154794D01*
X334967Y-149462D02*
Y-154794D01*
Y-149462D02*
X337252D01*
X338014Y-149716D01*
X338268Y-149970D01*
X338522Y-150478D01*
Y-150985D01*
X338268Y-151493D01*
X338014Y-151747D01*
X337252Y-152001D01*
X334967D02*
X337252D01*
X338014Y-152255D01*
X338268Y-152509D01*
X338522Y-153017D01*
Y-153778D01*
X338268Y-154286D01*
X338014Y-154540D01*
X337252Y-154794D01*
X334967D01*
X343016Y-149462D02*
X339715D01*
Y-154794D01*
X343016D01*
X339715Y-152001D02*
X341746D01*
X343905Y-149462D02*
Y-154794D01*
Y-149462D02*
X346190D01*
X346952Y-149716D01*
X347205Y-149970D01*
X347459Y-150478D01*
Y-150985D01*
X347205Y-151493D01*
X346952Y-151747D01*
X346190Y-152001D01*
X343905D01*
X345682D02*
X347459Y-154794D01*
X348907Y-151239D02*
X348653Y-151493D01*
X348907Y-151747D01*
X349161Y-151493D01*
X348907Y-151239D01*
Y-154286D02*
X348653Y-154540D01*
X348907Y-154794D01*
X349161Y-154540D01*
X348907Y-154286D01*
X-44998Y-149462D02*
Y-154794D01*
Y-149462D02*
X-41698D01*
X-44998Y-152001D02*
X-42967D01*
X-41088Y-149462D02*
Y-154794D01*
X-39971Y-149462D02*
Y-154794D01*
X-36924D01*
X-33039Y-149462D02*
X-36340D01*
Y-154794D01*
X-33039D01*
X-36340Y-152001D02*
X-34309D01*
X-27961Y-149462D02*
Y-154794D01*
Y-149462D02*
X-24406Y-154794D01*
Y-149462D02*
Y-154794D01*
X-18871D02*
X-20902Y-149462D01*
X-22933Y-154794D01*
X-22172Y-153017D02*
X-19632D01*
X-17627Y-149462D02*
Y-154794D01*
Y-149462D02*
X-15595Y-154794D01*
X-13564Y-149462D02*
X-15595Y-154794D01*
X-13564Y-149462D02*
Y-154794D01*
X-8739Y-149462D02*
X-12040D01*
Y-154794D01*
X-8739D01*
X-12040Y-152001D02*
X-10009D01*
X-7597Y-151239D02*
X-7851Y-151493D01*
X-7597Y-151747D01*
X-7343Y-151493D01*
X-7597Y-151239D01*
Y-154286D02*
X-7851Y-154540D01*
X-7597Y-154794D01*
X-7343Y-154540D01*
X-7597Y-154286D01*
X-44998Y-113462D02*
Y-118794D01*
Y-113462D02*
X-43221D01*
X-42459Y-113716D01*
X-41952Y-114224D01*
X-41698Y-114731D01*
X-41444Y-115493D01*
Y-116763D01*
X-41698Y-117525D01*
X-41952Y-118032D01*
X-42459Y-118540D01*
X-43221Y-118794D01*
X-44998D01*
X-40250Y-115239D02*
Y-118794D01*
Y-116763D02*
X-39996Y-116001D01*
X-39489Y-115493D01*
X-38981Y-115239D01*
X-38219D01*
X-34690D02*
Y-118794D01*
Y-116001D02*
X-35197Y-115493D01*
X-35705Y-115239D01*
X-36467D01*
X-36975Y-115493D01*
X-37483Y-116001D01*
X-37737Y-116763D01*
Y-117271D01*
X-37483Y-118032D01*
X-36975Y-118540D01*
X-36467Y-118794D01*
X-35705D01*
X-35197Y-118540D01*
X-34690Y-118032D01*
X-33268Y-115239D02*
X-32252Y-118794D01*
X-31236Y-115239D02*
X-32252Y-118794D01*
X-31236Y-115239D02*
X-30221Y-118794D01*
X-29205Y-115239D02*
X-30221Y-118794D01*
X-27961Y-115239D02*
Y-118794D01*
Y-116255D02*
X-27199Y-115493D01*
X-26691Y-115239D01*
X-25929D01*
X-25422Y-115493D01*
X-25168Y-116255D01*
Y-118794D01*
X-19582Y-113462D02*
Y-118794D01*
Y-116001D02*
X-19074Y-115493D01*
X-18566Y-115239D01*
X-17804D01*
X-17296Y-115493D01*
X-16789Y-116001D01*
X-16535Y-116763D01*
Y-117271D01*
X-16789Y-118032D01*
X-17296Y-118540D01*
X-17804Y-118794D01*
X-18566D01*
X-19074Y-118540D01*
X-19582Y-118032D01*
X-15138Y-115239D02*
X-13615Y-118794D01*
X-12091Y-115239D02*
X-13615Y-118794D01*
X-14122Y-119810D01*
X-14630Y-120318D01*
X-15138Y-120571D01*
X-15392D01*
X-10949Y-115239D02*
X-11202Y-115493D01*
X-10949Y-115747D01*
X-10695Y-115493D01*
X-10949Y-115239D01*
Y-118286D02*
X-11202Y-118540D01*
X-10949Y-118794D01*
X-10695Y-118540D01*
X-10949Y-118286D01*
X45529Y-74212D02*
Y-79544D01*
X43751Y-74212D02*
X47306D01*
X47941D02*
Y-79544D01*
X50836Y-74212D02*
Y-79544D01*
X49058Y-74212D02*
X52613D01*
X53248D02*
Y-79544D01*
X56295D01*
X60180Y-74212D02*
X56879D01*
Y-79544D01*
X60180D01*
X56879Y-76751D02*
X58910D01*
X61322Y-75989D02*
X61068Y-76243D01*
X61322Y-76497D01*
X61576Y-76243D01*
X61322Y-75989D01*
Y-79036D02*
X61068Y-79290D01*
X61322Y-79544D01*
X61576Y-79290D01*
X61322Y-79036D01*
X45002Y-124505D02*
X47287D01*
X48048Y-124251D01*
X48302Y-123997D01*
X48556Y-123489D01*
Y-122728D01*
X48302Y-122220D01*
X48048Y-121966D01*
X47287Y-121712D01*
X45002D01*
Y-127044D01*
X53812D02*
X51781Y-121712D01*
X49750Y-127044D01*
X50511Y-125267D02*
X53051D01*
X55057Y-121712D02*
Y-127044D01*
Y-121712D02*
X57342D01*
X58104Y-121966D01*
X58357Y-122220D01*
X58611Y-122728D01*
Y-123235D01*
X58357Y-123743D01*
X58104Y-123997D01*
X57342Y-124251D01*
X55057D01*
X56834D02*
X58611Y-127044D01*
X61582Y-121712D02*
Y-127044D01*
X59805Y-121712D02*
X63359D01*
X68184D02*
Y-127044D01*
Y-121712D02*
X71739Y-127044D01*
Y-121712D02*
Y-127044D01*
X74735Y-121712D02*
X74227Y-121966D01*
X73719Y-122474D01*
X73465Y-122981D01*
X73211Y-123743D01*
Y-125013D01*
X73465Y-125775D01*
X73719Y-126282D01*
X74227Y-126790D01*
X74735Y-127044D01*
X75751D01*
X76258Y-126790D01*
X76766Y-126282D01*
X77020Y-125775D01*
X77274Y-125013D01*
Y-123743D01*
X77020Y-122981D01*
X76766Y-122474D01*
X76258Y-121966D01*
X75751Y-121712D01*
X74735D01*
X78772Y-126536D02*
X78518Y-126790D01*
X78772Y-127044D01*
X79026Y-126790D01*
X78772Y-126536D01*
X80448Y-123489D02*
X80194Y-123743D01*
X80448Y-123997D01*
X80702Y-123743D01*
X80448Y-123489D01*
Y-126536D02*
X80194Y-126790D01*
X80448Y-127044D01*
X80702Y-126790D01*
X80448Y-126536D01*
X-41698Y-75462D02*
X-44998D01*
Y-80794D01*
X-41698D01*
X-44998Y-78001D02*
X-42967D01*
X-40809Y-75462D02*
Y-80794D01*
Y-75462D02*
X-37254Y-80794D01*
Y-75462D02*
Y-80794D01*
X-31973Y-76731D02*
X-32227Y-76224D01*
X-32734Y-75716D01*
X-33242Y-75462D01*
X-34258D01*
X-34766Y-75716D01*
X-35274Y-76224D01*
X-35528Y-76731D01*
X-35781Y-77493D01*
Y-78763D01*
X-35528Y-79524D01*
X-35274Y-80032D01*
X-34766Y-80540D01*
X-34258Y-80794D01*
X-33242D01*
X-32734Y-80540D01*
X-32227Y-80032D01*
X-31973Y-79524D01*
Y-78763D01*
X-33242D02*
X-31973D01*
X-30754Y-75462D02*
Y-80794D01*
X-29637Y-75462D02*
Y-80794D01*
Y-75462D02*
X-26082Y-80794D01*
Y-75462D02*
Y-80794D01*
X-21308Y-75462D02*
X-24609D01*
Y-80794D01*
X-21308D01*
X-24609Y-78001D02*
X-22578D01*
X-17119Y-75462D02*
X-20419D01*
Y-80794D01*
X-17119D01*
X-20419Y-78001D02*
X-18388D01*
X-16230Y-75462D02*
Y-80794D01*
Y-75462D02*
X-13945D01*
X-13183Y-75716D01*
X-12929Y-75970D01*
X-12675Y-76477D01*
Y-76985D01*
X-12929Y-77493D01*
X-13183Y-77747D01*
X-13945Y-78001D01*
X-16230D01*
X-14453D02*
X-12675Y-80794D01*
X-11228Y-77239D02*
X-11482Y-77493D01*
X-11228Y-77747D01*
X-10974Y-77493D01*
X-11228Y-77239D01*
Y-80286D02*
X-11482Y-80540D01*
X-11228Y-80794D01*
X-10974Y-80540D01*
X-11228Y-80286D01*
X139002Y-149462D02*
Y-154794D01*
X142049D01*
X146695D02*
X144664Y-149462D01*
X142632Y-154794D01*
X143394Y-153017D02*
X145933D01*
X147939Y-149462D02*
X149971Y-152001D01*
Y-154794D01*
X152002Y-149462D02*
X149971Y-152001D01*
X155988Y-149462D02*
X152688D01*
Y-154794D01*
X155988D01*
X152688Y-152001D02*
X154719D01*
X156877Y-149462D02*
Y-154794D01*
Y-149462D02*
X159162D01*
X159924Y-149716D01*
X160178Y-149970D01*
X160432Y-150478D01*
Y-150985D01*
X160178Y-151493D01*
X159924Y-151747D01*
X159162Y-152001D01*
X156877D01*
X158654D02*
X160432Y-154794D01*
X161879Y-151239D02*
X161625Y-151493D01*
X161879Y-151747D01*
X162133Y-151493D01*
X161879Y-151239D01*
Y-154286D02*
X161625Y-154540D01*
X161879Y-154794D01*
X162133Y-154540D01*
X161879Y-154286D01*
X-44998Y-134505D02*
X-42713D01*
X-41952Y-134251D01*
X-41698Y-133997D01*
X-41444Y-133489D01*
Y-132728D01*
X-41698Y-132220D01*
X-41952Y-131966D01*
X-42713Y-131712D01*
X-44998D01*
Y-137044D01*
X-40250Y-131712D02*
Y-137044D01*
X-36696Y-131712D02*
Y-137044D01*
X-40250Y-134251D02*
X-36696D01*
X-33699Y-131712D02*
X-34207Y-131966D01*
X-34715Y-132474D01*
X-34969Y-132981D01*
X-35223Y-133743D01*
Y-135013D01*
X-34969Y-135775D01*
X-34715Y-136282D01*
X-34207Y-136790D01*
X-33699Y-137044D01*
X-32684D01*
X-32176Y-136790D01*
X-31668Y-136282D01*
X-31414Y-135775D01*
X-31160Y-135013D01*
Y-133743D01*
X-31414Y-132981D01*
X-31668Y-132474D01*
X-32176Y-131966D01*
X-32684Y-131712D01*
X-33699D01*
X-29916D02*
Y-137044D01*
Y-131712D02*
X-26361Y-137044D01*
Y-131712D02*
Y-137044D01*
X-21587Y-131712D02*
X-24889D01*
Y-137044D01*
X-21587D01*
X-24889Y-134251D02*
X-22857D01*
X-20445Y-133489D02*
X-20699Y-133743D01*
X-20445Y-133997D01*
X-20191Y-133743D01*
X-20445Y-133489D01*
Y-136536D02*
X-20699Y-136790D01*
X-20445Y-137044D01*
X-20191Y-136790D01*
X-20445Y-136536D01*
X-44998Y-97005D02*
X-42713D01*
X-41952Y-96751D01*
X-41698Y-96497D01*
X-41444Y-95989D01*
Y-95227D01*
X-41698Y-94720D01*
X-41952Y-94466D01*
X-42713Y-94212D01*
X-44998D01*
Y-99544D01*
X-40250Y-94212D02*
Y-99544D01*
X-36696Y-94212D02*
Y-99544D01*
X-40250Y-96751D02*
X-36696D01*
X-33699Y-94212D02*
X-34207Y-94466D01*
X-34715Y-94974D01*
X-34969Y-95481D01*
X-35223Y-96243D01*
Y-97513D01*
X-34969Y-98274D01*
X-34715Y-98782D01*
X-34207Y-99290D01*
X-33699Y-99544D01*
X-32684D01*
X-32176Y-99290D01*
X-31668Y-98782D01*
X-31414Y-98274D01*
X-31160Y-97513D01*
Y-96243D01*
X-31414Y-95481D01*
X-31668Y-94974D01*
X-32176Y-94466D01*
X-32684Y-94212D01*
X-33699D01*
X-29916D02*
Y-99544D01*
Y-94212D02*
X-26361Y-99544D01*
Y-94212D02*
Y-99544D01*
X-21587Y-94212D02*
X-24889D01*
Y-99544D01*
X-21587D01*
X-24889Y-96751D02*
X-22857D01*
X-20445Y-95989D02*
X-20699Y-96243D01*
X-20445Y-96497D01*
X-20191Y-96243D01*
X-20445Y-95989D01*
Y-99036D02*
X-20699Y-99290D01*
X-20445Y-99544D01*
X-20191Y-99290D01*
X-20445Y-99036D01*
X218752Y-121712D02*
Y-127044D01*
Y-121712D02*
X221037D01*
X221798Y-121966D01*
X222052Y-122220D01*
X222306Y-122728D01*
Y-123235D01*
X222052Y-123743D01*
X221798Y-123997D01*
X221037Y-124251D01*
X218752D01*
X220529D02*
X222306Y-127044D01*
X226801Y-121712D02*
X223500D01*
Y-127044D01*
X226801D01*
X223500Y-124251D02*
X225531D01*
X227689Y-121712D02*
X229721Y-127044D01*
X231752Y-121712D02*
X229721Y-127044D01*
X232691Y-123489D02*
X232437Y-123743D01*
X232691Y-123997D01*
X232945Y-123743D01*
X232691Y-123489D01*
Y-126536D02*
X232437Y-126790D01*
X232691Y-127044D01*
X232945Y-126790D01*
X232691Y-126536D01*
X265002Y-121712D02*
Y-127044D01*
Y-121712D02*
X266779D01*
X267541Y-121966D01*
X268049Y-122474D01*
X268302Y-122981D01*
X268556Y-123743D01*
Y-125013D01*
X268302Y-125775D01*
X268049Y-126282D01*
X267541Y-126790D01*
X266779Y-127044D01*
X265002D01*
X273812D02*
X271781Y-121712D01*
X269750Y-127044D01*
X270511Y-125267D02*
X273051D01*
X276834Y-121712D02*
Y-127044D01*
X275057Y-121712D02*
X278611D01*
X282547D02*
X279246D01*
Y-127044D01*
X282547D01*
X279246Y-124251D02*
X281277D01*
X283690Y-123489D02*
X283436Y-123743D01*
X283690Y-123997D01*
X283944Y-123743D01*
X283690Y-123489D01*
Y-126536D02*
X283436Y-126790D01*
X283690Y-127044D01*
X283944Y-126790D01*
X283690Y-126536D01*
X58000Y123000D02*
Y127000D01*
X62000D01*
Y123000D01*
X58000D01*
X248000Y58000D02*
Y62000D01*
X252000D01*
Y58000D01*
X248000D01*
D36*
X310500Y184500D02*
G03*
X310500Y184500I-2000J0D01*
G01*
X275000Y149000D02*
G03*
X275000Y149000I-2000J0D01*
G01*
M02*
